<svg width="39" height="50" viewBox="0 0 39 50" fill="none" xmlns="http://www.w3.org/2000/svg">
  <path fill-rule="evenodd" clip-rule="evenodd" d="M18.495 21.3348C18.816 21.1744 19.1937 21.1744 19.5147 21.3348L23.9809 23.5679C24.3671 23.761 24.6111 24.1558 24.6111 24.5876V29.0538C24.6111 29.4856 24.3671 29.8803 23.9809 30.0734L19.5147 32.3065C19.1937 32.467 18.816 32.467 18.495 32.3065L14.0288 30.0734C13.6426 29.8803 13.3987 29.4856 13.3987 29.0538V24.5876C13.3987 24.1558 13.6426 23.761 14.0288 23.5679L18.495 21.3348ZM15.6787 25.2921V28.3492L19.0049 30.0123L22.3311 28.3492V25.2921L19.0049 23.629L15.6787 25.2921Z" fill="#fff"></path>
  <path fill-rule="evenodd" clip-rule="evenodd" d="M11.2859 0.630176C11.479 0.243963 11.8737 0 12.3055 0H25.7042C26.136 0 26.5307 0.243963 26.7238 0.630176C26.9169 1.01639 26.8753 1.47856 26.6162 1.824L23.5374 5.92902L24.625 15.7156L30.7916 19.7239C31.1152 19.9342 31.3104 20.2938 31.3104 20.6797V31.8452C31.3104 32.2226 31.1236 32.5756 30.8115 32.7878L26.4864 35.7296H31.2869C31.5458 35.7296 31.7969 35.8177 31.9991 35.9794L37.5818 40.4456C37.902 40.7018 38.06 41.1102 37.9955 41.5152C37.931 41.9201 37.6539 42.2593 37.27 42.4032L19.4051 49.1025C19.1471 49.1993 18.8626 49.1993 18.6046 49.1025L0.739743 42.4032C0.355782 42.2593 0.0787372 41.9201 0.0142213 41.5152C-0.0502947 41.1102 0.10766 40.7018 0.427872 40.4456L6.01063 35.9794C6.21277 35.8177 6.46392 35.7296 6.72278 35.7296H11.5233L7.19818 32.7878C6.88612 32.5756 6.69933 32.2226 6.69933 31.8452V20.6797C6.69933 20.2938 6.89452 19.9342 7.21804 19.7239L13.3847 15.7156L14.4723 5.92898L11.3935 1.824C11.1345 1.47856 11.0928 1.01639 11.2859 0.630176ZM15.8573 14.1083L18.3836 12.4663C18.7613 12.2207 19.2483 12.2207 19.6261 12.4663L22.1524 14.1083L21.3342 6.74621H16.6755L15.8573 14.1083ZM22.4324 35.7296H15.5773L8.97933 31.2419V21.2984L19.0048 14.7818L29.0304 21.2984V31.2419L22.4324 35.7296ZM15.2132 38.0096H7.12267L3.41869 40.9728L19.0049 46.8176L34.591 40.9728L30.887 38.0096H22.7964C22.7921 38.0097 22.7877 38.0097 22.7833 38.0097H15.2264C15.222 38.0097 15.2176 38.0097 15.2132 38.0096ZM23.4242 2.28L21.7845 4.46619H16.2252L14.5855 2.28H23.4242Z" fill="#fff"></path>
</svg>
