<svg width="40" height="40" viewBox="0 0 40 40" fill="none" xmlns="http://www.w3.org/2000/svg">
  <path fill-rule="evenodd" clip-rule="evenodd" d="M3.38706 0.42721C3.79067 0.148986 4.2693 0 4.75951 0C5.24972 0 5.72836 0.148986 6.13196 0.42721C6.53557 0.705433 6.84509 1.09975 7.01948 1.55789L7.02146 1.56309L9.20533 7.37786C9.4085 7.60014 9.53244 7.89607 9.53244 8.22095V8.40468C9.53346 8.42538 9.53397 8.44621 9.53397 8.46716C9.53397 8.48812 9.53346 8.50895 9.53244 8.52965V16.9801H11.7931C12.4349 16.9801 13.0504 17.235 13.5041 17.6888C13.9579 18.1426 14.2129 18.7581 14.2129 19.3998V20.4893H16.3918V19.3998C16.3918 18.7581 16.6467 18.1426 17.1005 17.6888C17.5543 17.235 18.1697 16.9801 18.8115 16.9801H21.1509C21.7927 16.9801 22.4081 17.235 22.8619 17.6888C23.3157 18.1426 23.5707 18.7581 23.5707 19.3998V20.4893H25.7496V19.3998C25.7496 18.7581 26.0045 18.1426 26.4583 17.6888C26.9121 17.235 27.5275 16.9801 28.1693 16.9801H30.5087C30.5166 16.9801 30.5245 16.9801 30.5324 16.9802V8.89019C30.5187 8.85202 30.5068 8.81299 30.4968 8.77321C30.4283 8.52688 30.4345 8.25738 30.5312 7.9997L30.5936 7.83352C30.6051 7.79842 30.618 7.76401 30.6324 7.73036L32.9506 1.55789C33.125 1.09975 33.4345 0.705433 33.8381 0.42721C34.2417 0.148986 34.7204 0 35.2106 0C35.7008 0 36.1794 0.148986 36.583 0.42721C36.9867 0.705433 37.2962 1.09975 37.4706 1.55789L37.4725 1.56309L39.8416 7.87095C39.938 8.04816 39.9927 8.25127 39.9927 8.46716V36.333C39.9927 37.0892 39.7331 37.8437 39.2282 38.4244C38.7185 39.0106 37.9867 39.3808 37.1797 39.3808H31.709C31.6422 39.3808 31.5766 39.3755 31.5126 39.3654H7.18304C7.11843 39.3654 7.05499 39.3605 6.99302 39.3511C6.90543 39.3705 6.81438 39.3808 6.72094 39.3808H1.25034C0.55998 39.3808 0.000335696 38.8211 0.000335696 38.1308V8.46786C-0.00327635 8.31258 0.0221901 8.15402 0.0801487 7.9997L2.49953 1.55789C2.67393 1.09975 2.98345 0.705433 3.38706 0.42721ZM33.0324 9.71716V22.7209C33.0324 23.4113 32.4728 23.9709 31.7824 23.9709C31.0921 23.9709 30.5324 23.4113 30.5324 22.7209V19.8998C30.4757 19.7699 30.4404 19.6285 30.431 19.4801H28.2496V20.5696C28.2496 21.2113 27.9946 21.8268 27.5408 22.2806C27.0871 22.7343 26.4716 22.9893 25.8298 22.9893H23.4904C22.8486 22.9893 22.2332 22.7343 21.7794 22.2806C21.3256 21.8268 21.0707 21.2113 21.0707 20.5696V19.4801H18.8918V20.5696C18.8918 21.2113 18.6368 21.8268 18.183 22.2806C17.7293 22.7343 17.1138 22.9893 16.472 22.9893H14.1326C13.4908 22.9893 12.8754 22.7343 12.4216 22.2806C11.9678 21.8268 11.7129 21.2113 11.7129 20.5696V19.4801H9.53244V22.7209C9.53244 23.4113 8.9728 23.9709 8.28244 23.9709C7.59208 23.9709 7.03244 23.4113 7.03244 22.7209V9.71716H2.50034V36.8808H6.72094C6.78555 36.8808 6.84902 36.8857 6.91099 36.8951C6.99857 36.8757 7.0896 36.8654 7.18304 36.8654H31.6785C31.7453 36.8654 31.8109 36.8707 31.8749 36.8808H37.1797C37.2017 36.8808 37.265 36.8721 37.3416 36.7841C37.423 36.6905 37.4927 36.5304 37.4927 36.333V9.71716H33.0324ZM4.75951 2.65095L6.47447 7.21716H3.04456L4.75951 2.65095ZM36.9255 7.21716L35.2106 2.65095L33.4956 7.21716H36.9255Z" fill="#fff"></path>
</svg>
