<svg width="43" height="40" viewBox="0 0 43 40" fill="none" xmlns="http://www.w3.org/2000/svg">
  <path fill-rule="evenodd" clip-rule="evenodd" d="M21.25 0C16.8778 0 13.3333 3.54441 13.3333 7.91667C13.3333 11.8636 16.2217 15.1359 20 15.7352L20 36.8889H9.16666V26.8463C12.945 26.247 15.8333 22.9747 15.8333 19.0278C15.8333 14.6555 12.2889 11.1111 7.91667 11.1111C3.54441 11.1111 0 14.6555 0 19.0278C0 22.9747 2.88835 26.247 6.66666 26.8463V36.8889H0.25L0.25 39.3889L42.25 39.3889V36.8889H36.1667V26.6241C39.945 26.0248 42.8333 22.7525 42.8333 18.8056C42.8333 14.4333 39.2889 10.8889 34.9167 10.8889C30.5444 10.8889 27 14.4333 27 18.8056C27 22.7525 29.8884 26.0248 33.6667 26.6241V36.8889H22.5L22.5 15.7352C26.2783 15.1359 29.1667 11.8636 29.1667 7.91667C29.1667 3.54441 25.6223 0 21.25 0ZM15.8333 7.91667C15.8333 4.92512 18.2585 2.5 21.25 2.5C24.2416 2.5 26.6667 4.92512 26.6667 7.91667C26.6667 10.9082 24.2416 13.3333 21.25 13.3333C18.2585 13.3333 15.8333 10.9082 15.8333 7.91667ZM34.9167 13.3889C31.9251 13.3889 29.5 15.814 29.5 18.8056C29.5 21.7971 31.9251 24.2222 34.9167 24.2222C37.9082 24.2222 40.3333 21.7971 40.3333 18.8056C40.3333 15.814 37.9082 13.3889 34.9167 13.3889ZM7.91667 13.6111C4.92512 13.6111 2.5 16.0362 2.5 19.0278C2.5 22.0193 4.92512 24.4444 7.91667 24.4444C10.9082 24.4444 13.3333 22.0193 13.3333 19.0278C13.3333 16.0362 10.9082 13.6111 7.91667 13.6111Z" fill="#fff"></path>
</svg>
